<?xml version="1.0" encoding="UTF-8" standalone="no"?>
<svg
   viewBox="0 0 448.00003 448"
   version="1.1"
   id="svg4"
   sodipodi:docname="secobserve_white_icon.svg"
   inkscape:export-filename="Font_Awesome_5_solid_binoculars.png"
   inkscape:export-xdpi="323.47"
   inkscape:export-ydpi="323.47"
   inkscape:version="1.4.2 (ebf0e94, 2025-05-08)"
   width="448.00003"
   height="448"
   xmlns:inkscape="http://www.inkscape.org/namespaces/inkscape"
   xmlns:sodipodi="http://sodipodi.sourceforge.net/DTD/sodipodi-0.dtd"
   xmlns="http://www.w3.org/2000/svg"
   xmlns:svg="http://www.w3.org/2000/svg">
  <defs
     id="defs8" />
  <sodipodi:namedview
     id="namedview6"
     pagecolor="#ffffff"
     bordercolor="#666666"
     borderopacity="1.0"
     inkscape:showpageshadow="2"
     inkscape:pageopacity="0.0"
     inkscape:pagecheckerboard="0"
     inkscape:deskcolor="#d1d1d1"
     showgrid="false"
     inkscape:zoom="0.4786668"
     inkscape:cx="1094.7072"
     inkscape:cy="480.50126"
     inkscape:current-layer="svg4" />
  <g
     id="g4"
     transform="scale(14.933334,15.033557)"
     style="fill:#ffffff;fill-opacity:1">
    <path
       d="m 18.7,17.9 c -0.5,0 -0.7,-0.4 -0.7,-1 V 6 h 8 l 4,15 v 1 6.8 c 0,0.5 -0.4,1 -1,1 h -8.4 c -0.5,0 -0.6,-0.4 -0.6,-1 V 17.9 Z"
       id="path1"
       style="fill:#ffffff;fill-opacity:1" />
    <path
       d="m 11.3,17.9 c 0.5,0 0.7,-0.4 0.7,-1 V 6 H 4 L 0,21 v 1 6.8 c 0,0.5 0.4,1 1,1 h 8.4 c 0.5,0 0.7,-0.4 0.7,-1 V 17.9 Z"
       id="path2"
       style="fill:#ffffff;fill-opacity:1" />
    <path
       d="M 7,4 V 1 C 7,0.5 7.4,0 8,0 h 3 c 0.5,0 1,0.4 1,1 v 3 z"
       id="path3"
       style="fill:#ffffff;fill-opacity:1" />
    <path
       d="M 18,4 V 1 c 0,-0.5 0.4,-1 1,-1 h 3 c 0.5,0 1,0.4 1,1 v 3 z"
       id="path4"
       style="fill:#ffffff;fill-opacity:1" />
    <rect
       x="14"
       y="6"
       width="2"
       height="11"
       id="rect4"
       style="fill:#ffffff;fill-opacity:1" />
  </g>
</svg>
