<?xml version="1.0" encoding="UTF-8" standalone="no"?>
<svg
   viewBox="0 0 4284.0024 448"
   version="1.1"
   id="svg4"
   sodipodi:docname="secobserve.svg"
   inkscape:export-filename="Font_Awesome_5_solid_binoculars.png"
   inkscape:export-xdpi="323.47"
   inkscape:export-ydpi="323.47"
   inkscape:version="1.2.1 (9c6d41e410, 2022-07-14)"
   width="4284.0024"
   height="448"
   xmlns:inkscape="http://www.inkscape.org/namespaces/inkscape"
   xmlns:sodipodi="http://sodipodi.sourceforge.net/DTD/sodipodi-0.dtd"
   xmlns="http://www.w3.org/2000/svg"
   xmlns:svg="http://www.w3.org/2000/svg">
  <defs
     id="defs8" />
  <sodipodi:namedview
     id="namedview6"
     pagecolor="#ffffff"
     bordercolor="#666666"
     borderopacity="1.0"
     inkscape:showpageshadow="2"
     inkscape:pageopacity="0.0"
     inkscape:pagecheckerboard="0"
     inkscape:deskcolor="#d1d1d1"
     showgrid="false"
     inkscape:zoom="0.33846854"
     inkscape:cx="2143.4784"
     inkscape:cy="228.97254"
     inkscape:current-layer="svg4" />
  <path
     d="M 416,16.000016 C 416,7.1600157 408.84,1.5691406e-5 400,1.5691406e-5 h -64 c -8.84,0 -16,7.160000008594 -16,16.000000308594 v 47.999998 h 96 z M 63.91,127.99001 c -2.51,93.85 -60.45,114.23 -63.91,244.01 v 44 c 0,17.67 14.33,32 32,32 h 96 c 17.67,0 32,-14.33 32,-32 v -160 h 32 V 96.000014 H 95.84 c -17.63,0 -31.45,14.369996 -31.93,31.989996 z m 384.18,0 c -0.48,-17.62 -14.3,-31.989996 -31.93,-31.989996 H 320 V 256.00001 h 32 v 160 c 0,17.67 14.33,32 32,32 h 96 c 17.67,0 32,-14.33 32,-32 v -44 c -3.46,-129.78 -61.4,-150.16 -63.91,-244.01 z M 176,1.5691406e-5 H 112 C 103.16,1.5691406e-5 96,7.1600157 96,16.000016 v 47.999998 h 96 V 16.000016 C 192,7.1600157 184.84,1.5691406e-5 176,1.5691406e-5 Z M 224,256.00001 h 64 V 96.000014 h -64 z"
     id="path2"
     style="fill:#1e194b;fill-opacity:1" />
  <g
     aria-label="SecObserve"
     id="text164"
     style="font-size:617.931px;line-height:386.207px;font-family:'Bitstream Vera Sans';letter-spacing:0px;word-spacing:0px;stroke-width:15.4483px">
    <path
       d="m 951.50231,155.71861 q -0.61793,-17.92 -12.35862,-29.66069 Q 927.403,113.6993 901.4499,113.6993 q -27.18897,0 -38.92966,12.97655 -11.12275,12.35862 -11.12275,28.42483 0,17.30206 14.83034,24.71724 14.83034,6.79724 37.07586,11.74069 22.24552,4.32551 48.19862,9.26896 25.95311,4.94345 48.19862,17.30207 22.24547,12.35862 37.07587,35.84 14.8303,22.86345 14.8303,63.02897 0,30.27862 -11.1227,54.37793 -10.5048,24.09931 -30.8966,41.40137 -19.77376,16.68414 -48.19859,25.95311 -27.8069,9.26896 -61.7931,9.26896 -33.98621,0 -61.79311,-9.26896 -27.18896,-8.65104 -47.58069,-24.71724 -19.77379,-16.68414 -30.89655,-40.16552 -11.12276,-23.48138 -11.74069,-53.14207 h 97.63311 q 0,19.15586 12.35862,30.27862 12.35862,11.12276 42.01931,11.12276 29.66069,0 42.01931,-11.12276 12.35862,-11.12276 12.35862,-30.27862 0,-12.97655 -8.65104,-19.77379 -8.65103,-7.41517 -22.86345,-11.12276 -13.59448,-4.32552 -31.51448,-7.41517 -17.92,-3.08966 -36.45793,-7.41517 -18.53793,-4.32552 -36.45793,-11.74069 -17.92,-7.41518 -32.13241,-20.39173 -13.59449,-12.97655 -22.24552,-33.36827 -8.65104,-20.39173 -8.65104,-50.67035 0,-28.42483 10.50483,-52.52414 10.50483,-24.099306 29.04276,-41.401375 19.15586,-17.92 45.7269,-27.188966 27.18896,-9.886896 59.93931,-9.886896 31.51448,0 57.46758,9.268965 26.57104,9.268966 45.72688,25.953104 19.1559,16.684137 29.6607,40.783448 11.1228,23.48138 12.3586,51.90621 z"
       style="font-family:AllRoundGothicW01-Bold;-inkscape-font-specification:'AllRoundGothicW01-Bold, Normal';fill:#1e194b"
       id="path448" />
    <path
       d="m 1185.698,312.05516 v 1.23586 q 6.1793,25.33517 24.0993,38.31172 17.92,12.35862 43.8731,12.35862 19.7738,0 34.6042,-4.94344 14.8303,-4.94345 23.4813,-17.30207 h 95.7793 q -14.8303,47.58069 -55.6137,76.62344 -40.7835,28.42483 -98.2511,28.42483 -36.4579,0 -66.7365,-11.74069 -29.6607,-12.35862 -51.9062,-33.36827 -21.6276,-21.62759 -33.9862,-51.28828 -11.7407,-29.66069 -11.7407,-64.26483 0,-34.60413 11.7407,-64.26482 12.3586,-29.66069 33.9862,-50.67035 22.2455,-21.62758 51.9062,-33.36827 30.2786,-12.35862 66.7365,-12.35862 35.84,0 65.5007,12.35862 30.2786,11.74069 51.9062,33.36827 21.6276,21.00966 33.3683,50.67035 11.7407,29.66069 11.7407,64.26482 v 25.95311 z m 67.9724,-103.81242 q -24.0993,0 -41.4014,11.12276 -17.302,11.12276 -24.7172,32.75035 v 1.23586 h 133.4731 v -1.23586 q -8.0331,-21.62759 -25.9531,-32.75035 -17.3021,-11.12276 -41.4014,-11.12276 z"
       style="font-family:AllRoundGothicW01-Bold;-inkscape-font-specification:'AllRoundGothicW01-Bold, Normal';fill:#1e194b"
       id="path450" />
    <path
       d="m 1681.8965,253.35171 q -8.0331,-19.15586 -25.3351,-30.27862 -16.6842,-11.12276 -40.1655,-11.12276 -31.5145,0 -51.2883,20.39172 -19.1559,20.39173 -19.1559,53.76 0,33.36828 19.1559,53.76 19.7738,20.39173 51.2883,20.39173 23.4813,0 40.1655,-11.12276 17.302,-11.12276 25.3351,-30.27862 h 93.9256 q -4.9435,28.42483 -18.538,51.9062 -13.5945,23.48138 -34.6041,40.78345 -20.3917,16.68414 -47.5807,25.95311 -27.189,9.26896 -58.7034,9.26896 -36.458,0 -66.7366,-11.74069 -29.6607,-12.35862 -51.9062,-33.36827 -21.6276,-21.62759 -33.9862,-51.28828 -11.7407,-29.66069 -11.7407,-64.26483 0,-34.60413 11.7407,-64.26482 12.3586,-29.66069 33.9862,-50.67035 22.2455,-21.62758 51.9062,-33.36827 30.2786,-12.35862 66.7366,-12.35862 31.5144,0 58.7034,9.26896 27.189,9.26897 47.5807,26.57104 21.0096,16.68413 34.6041,40.16551 13.5945,23.48138 18.538,51.90621 z"
       style="font-family:AllRoundGothicW01-Bold;-inkscape-font-specification:'AllRoundGothicW01-Bold, Normal';fill:#1e194b"
       id="path452" />
    <path
       d="m 2243.5959,236.66757 q 0,45.7269 -16.0662,84.03862 -15.4483,38.31173 -44.4911,66.73655 -28.4248,27.8069 -67.9724,43.87311 -39.5476,15.44827 -86.5103,15.44827 -47.5807,0 -87.1283,-15.44827 -38.9297,-16.06621 -67.9724,-43.87311 -28.4248,-28.42482 -44.491,-66.73655 -15.4483,-38.31172 -15.4483,-84.03862 0,-45.10896 15.4483,-83.42069 16.0662,-38.92965 44.491,-66.736549 29.0427,-28.424828 67.9724,-43.873103 39.5476,-16.066207 87.1283,-16.066207 46.9627,0 86.5103,16.066207 39.5476,15.448275 67.9724,43.873103 29.0428,27.806899 44.4911,66.736549 16.0662,38.31173 16.0662,83.42069 z m -215.04,117.4069 q 25.9531,0 46.9627,-8.65104 21.0097,-8.65103 35.84,-24.09931 14.8304,-16.0662 22.8635,-37.69379 8.0331,-21.62759 8.0331,-46.96276 0,-25.33517 -8.0331,-46.96276 -8.0331,-21.62758 -22.8635,-37.07586 -14.8303,-16.06621 -35.84,-24.71724 -21.0096,-8.65103 -46.9627,-8.65103 -25.9531,0 -46.9628,8.65103 -21.0096,8.65103 -35.84,24.71724 -14.8303,15.44828 -22.8634,37.07586 -8.0331,21.62759 -8.0331,46.96276 0,25.33517 8.0331,46.96276 8.0331,21.62759 22.8634,37.69379 14.8304,15.44828 35.84,24.09931 21.0097,8.65104 46.9628,8.65104 z"
       style="font-family:AllRoundGothicW01-Bold;-inkscape-font-specification:'AllRoundGothicW01-Bold, Normal';fill:#1e194b"
       id="path454" />
    <path
       d="m 2294.8841,-1.3427734e-5 h 92.6896 V 164.98757 h 1.2359 q 12.9766,-17.92 35.2221,-28.42483 22.2455,-11.12275 51.9062,-11.12275 24.0993,0 50.0524,9.26896 25.9531,9.26897 46.9628,29.04276 21.6275,19.15586 35.222,49.43448 14.2124,30.27862 14.2124,72.91586 0,34.60414 -12.3586,64.26483 -11.7407,29.66069 -33.9862,51.28828 -21.6276,21.00965 -51.9062,33.36827 -30.2786,11.74069 -66.1186,11.74069 -36.4579,0 -66.7366,-11.12276 -29.6607,-11.74069 -51.2882,-32.75034 -21.0097,-21.62759 -33.3683,-51.90621 -11.7407,-30.27862 -11.7407,-67.97241 z M 2458.0179,360.25378 q 31.5145,0 50.6703,-20.39173 19.7738,-20.39172 19.7738,-53.76 0,-33.36827 -19.7738,-53.76 -19.1558,-20.39172 -50.6703,-20.39172 -31.5145,0 -51.2883,20.39172 -19.1559,20.39173 -19.1559,53.76 0,33.36828 19.1559,53.76 19.7738,20.39173 51.2883,20.39173 z"
       style="font-family:AllRoundGothicW01-Bold;-inkscape-font-specification:'AllRoundGothicW01-Bold, Normal';fill:#1e194b"
       id="path456" />
    <path
       d="m 2822.597,224.30895 q -1.8538,-10.50483 -10.5048,-16.06621 -8.651,-6.17931 -22.2455,-6.17931 -17.92,0 -25.3352,7.41518 -7.4152,7.41517 -7.4152,18.53793 0,10.50482 11.7407,14.83034 12.3586,4.32552 30.2786,7.41517 17.92,3.08966 38.9297,6.79725 21.0097,3.70758 38.9297,12.97655 17.92,9.26896 29.6606,26.57103 12.3587,17.30207 12.3587,47.58069 0,22.24552 -9.269,41.40138 -9.269,18.53793 -26.571,32.13241 -16.6842,13.59449 -40.7835,21.00966 -24.0993,8.0331 -53.76,8.0331 -29.6607,0 -53.76,-7.41517 -23.4814,-7.41517 -40.7834,-21.00966 -16.6842,-13.59448 -25.9531,-31.51448 -9.269,-18.53793 -9.8869,-40.78345 h 91.4538 q 0.6179,24.09931 37.6938,24.09931 22.2455,0 29.6606,-6.79724 8.0332,-6.79724 8.0332,-19.15586 0,-10.50483 -12.3587,-14.83034 -11.7407,-4.32552 -29.6607,-7.41518 -17.92,-3.08965 -38.9296,-6.79724 -21.0097,-3.70758 -38.9297,-12.97655 -17.92,-9.26897 -30.2786,-26.57103 -11.7407,-17.30207 -11.7407,-47.58069 0,-22.24552 8.6511,-40.78345 9.2689,-18.53793 25.3351,-32.13241 16.0662,-14.21242 38.9297,-21.62759 23.4814,-8.0331 51.9062,-8.0331 28.4248,0 51.2883,8.0331 22.8634,7.41517 38.9296,21.00965 16.0662,12.97656 24.7173,31.51449 9.2689,17.92 9.8869,38.31172 z"
       style="font-family:AllRoundGothicW01-Bold;-inkscape-font-specification:'AllRoundGothicW01-Bold, Normal';fill:#1e194b"
       id="path458" />
    <path
       d="m 3051.2313,312.05516 v 1.23586 q 6.1793,25.33517 24.0993,38.31172 17.92,12.35862 43.8731,12.35862 19.7738,0 34.6042,-4.94344 14.8303,-4.94345 23.4813,-17.30207 h 95.7793 q -14.8303,47.58069 -55.6137,76.62344 -40.7835,28.42483 -98.2511,28.42483 -36.4579,0 -66.7365,-11.74069 -29.6607,-12.35862 -51.9062,-33.36827 -21.6276,-21.62759 -33.9862,-51.28828 -11.7407,-29.66069 -11.7407,-64.26483 0,-34.60413 11.7407,-64.26482 12.3586,-29.66069 33.9862,-50.67035 22.2455,-21.62758 51.9062,-33.36827 30.2786,-12.35862 66.7365,-12.35862 35.84,0 65.5007,12.35862 30.2786,11.74069 51.9062,33.36827 21.6276,21.00966 33.3683,50.67035 11.7407,29.66069 11.7407,64.26482 v 25.95311 z m 67.9724,-103.81242 q -24.0993,0 -41.4014,11.12276 -17.302,11.12276 -24.7172,32.75035 v 1.23586 h 133.4731 v -1.23586 q -8.0331,-21.62759 -25.9531,-32.75035 -17.3021,-11.12276 -41.4014,-11.12276 z"
       style="font-family:AllRoundGothicW01-Bold;-inkscape-font-specification:'AllRoundGothicW01-Bold, Normal';fill:#1e194b"
       id="path460" />
    <path
       d="m 3511.5897,267.56412 v -2.47172 q 0,-30.89655 -12.3586,-42.01931 -12.3586,-11.12276 -32.1324,-11.12276 -19.7738,0 -32.1324,11.12276 -12.3586,11.12276 -12.3586,42.01931 V 438.73102 H 3329.918 V 265.0924 q 0,-35.84 9.8869,-61.7931 9.8869,-26.57104 27.8069,-43.87311 18.5379,-17.30207 43.2552,-25.33517 25.3352,-8.65103 56.2317,-8.65103 30.8966,0 56.2317,8.65103 25.3352,8.0331 43.2552,25.9531 17.92,17.30207 27.8069,44.49104 9.8869,26.57103 9.8869,63.02896 z"
       style="font-family:AllRoundGothicW01-Bold;-inkscape-font-specification:'AllRoundGothicW01-Bold, Normal';fill:#1e194b"
       id="path462" />
    <path
       d="M 3722.9218,438.73102 3613.548,133.47309 h 99.4869 l 66.7366,215.04 h 1.2358 l 66.7366,-215.04 h 97.0151 l -109.3738,305.25793 z"
       style="font-family:AllRoundGothicW01-Bold;-inkscape-font-specification:'AllRoundGothicW01-Bold, Normal';fill:#1e194b"
       id="path464" />
    <path
       d="m 4053.514,312.05516 v 1.23586 q 6.1793,25.33517 24.0993,38.31172 17.92,12.35862 43.8731,12.35862 19.7738,0 34.6042,-4.94344 14.8303,-4.94345 23.4813,-17.30207 h 95.7794 q -14.8304,47.58069 -55.6138,76.62344 -40.7835,28.42483 -98.2511,28.42483 -36.4579,0 -66.7365,-11.74069 -29.6607,-12.35862 -51.9062,-33.36827 -21.6276,-21.62759 -33.9862,-51.28828 -11.7407,-29.66069 -11.7407,-64.26483 0,-34.60413 11.7407,-64.26482 12.3586,-29.66069 33.9862,-50.67035 22.2455,-21.62758 51.9062,-33.36827 30.2786,-12.35862 66.7365,-12.35862 35.84,0 65.5007,12.35862 30.2786,11.74069 51.9062,33.36827 21.6276,21.00966 33.3683,50.67035 11.7407,29.66069 11.7407,64.26482 v 25.95311 z m 67.9724,-103.81242 q -24.0993,0 -41.4013,11.12276 -17.3021,11.12276 -24.7173,32.75035 v 1.23586 h 133.4731 v -1.23586 q -8.0331,-21.62759 -25.9531,-32.75035 -17.3021,-11.12276 -41.4014,-11.12276 z"
       style="font-family:AllRoundGothicW01-Bold;-inkscape-font-specification:'AllRoundGothicW01-Bold, Normal';fill:#1e194b"
       id="path466" />
  </g>
</svg>
